<?xml version="1.0"?>

<!DOCTYPE svg PUBLIC '-//W3C//DTD SVG 1.0//EN' 'http://www.w3.org/TR/2001/REC-SVG-20010904/DTD/svg10.dtd'>
<svg fill-opacity="1" xmlns:xlink="http://www.w3.org/1999/xlink" color-rendering="auto" color-interpolation="auto" stroke="black" text-rendering="auto" stroke-linecap="square" stroke-miterlimit="10" stroke-opacity="1" shape-rendering="auto" fill="black" stroke-dasharray="none" font-weight="normal" stroke-width="1" xmlns="http://www.w3.org/2000/svg" font-family="&apos;Dialog&apos;" font-style="normal" stroke-linejoin="miter" font-size="12" stroke-dashoffset="0" image-rendering="auto">
  <!--Unicode Character 'THUMBS DOWN SIGN' (U+1F44E)-->
  <defs id="genericDefs" />
  <g>
    <g>
      <path d="M169.875 190.5469 Q169.875 216.1406 120.6562 216.1406 Q122.4844 230.3438 128.3906 240.6094 Q137.9531 257.4844 137.9531 266.0625 Q137.9531 278.4375 130.6406 284.9062 Q124.875 290.1094 111.7969 293.2031 L104.7656 261.9844 L78.75 234.2812 Q70.0312 222.1875 56.5312 206.7188 Q53.5781 204.75 31.7812 204.75 Q24.1875 188.5781 24.1875 171.5625 Q24.1875 154.9688 31.0781 138.2344 L52.0312 138.2344 Q66.5156 121.6406 83.3906 113.9062 Q88.7344 113.4844 91.2656 113.4844 Q98.4375 113.4844 107.5781 116.0156 L112.6406 113.4844 L118.6875 113.4844 Q139.3594 113.4844 139.3594 127.4062 Q139.3594 129.0938 139.0781 130.7812 Q154.2656 132.0469 154.2656 145.5469 Q154.2656 147.2344 153.9844 149.2031 Q165.375 152.2969 165.375 163.125 Q165.375 167.4844 162.2812 172.4062 Q169.875 180.5625 169.875 190.5469 ZM132.3281 130.3594 L132.3281 129.5156 Q132.3281 120.0938 118.6875 120.0938 L114.0469 120.0938 L90.9844 130.5 Q93.5156 133.5938 99.2812 139.3594 L119.3906 130.3594 L132.3281 130.3594 ZM147.7969 145.8281 Q147.7969 137.5312 131.3438 137.5312 L120.7969 137.5312 L93.9375 149.4844 Q98.2969 154.6875 103.0781 157.0781 L124.5938 147.5156 L147.375 147.6562 Q147.6562 146.8125 147.7969 145.8281 ZM157.9219 163.125 Q157.9219 154.4062 140.7656 154.4062 L125.8594 154.4062 L99.8438 165.9375 Q104.7656 172.5469 111.6562 174.375 L132.6094 164.9531 L140.0625 164.9531 Q150.6094 164.9531 156.0938 167.9062 Q157.9219 165.375 157.9219 163.125 ZM162.8438 191.3906 Q162.8438 182.9531 157.0078 177.5391 Q151.1719 172.125 142.7344 171.9844 L134.1562 171.8438 L108.7031 183.375 Q114.4688 192.0938 124.1719 192.0938 Q129.2344 192.0938 139.9219 187.5938 L146.5312 187.3125 L153.1406 194.3438 L141.75 194.4844 Q132.1875 198.5625 125.2969 198.5625 Q107.2969 198.5625 99 180.2812 L103.7812 178.0312 Q94.9219 173.6719 90.1406 162.8438 L95.625 160.4531 Q89.1562 156.375 83.6719 146.5312 L92.3906 142.4531 Q85.2188 137.25 80.8594 127.6875 L98.1562 119.9531 Q93.9375 119.1094 90.9844 119.1094 Q90.9844 119.1094 85.5 119.25 Q66.7969 130.0781 55.125 145.5469 L35.7188 145.5469 Q31.3594 158.3438 31.3594 170.0156 Q31.3594 183.7969 36.1406 197.1562 Q53.8594 197.1562 58.2188 199.1953 Q62.5781 201.2344 70.7344 212.3438 Q81.4219 226.5469 82.6875 227.9531 L110.9531 258.0469 L116.5781 284.0625 Q130.6406 279.2812 130.6406 266.0625 Q130.6406 259.5938 122.7656 245.6719 Q113.625 229.3594 112.9219 209.25 Q162.8438 209.25 162.8438 191.3906 Z" stroke="none" />
    </g>
  </g>
</svg>
