<?xml version="1.0"?>

<!DOCTYPE svg PUBLIC '-//W3C//DTD SVG 1.0//EN' 'http://www.w3.org/TR/2001/REC-SVG-20010904/DTD/svg10.dtd'>
<svg fill-opacity="1" xmlns:xlink="http://www.w3.org/1999/xlink" color-rendering="auto" color-interpolation="auto" stroke="black" text-rendering="auto" stroke-linecap="square" stroke-miterlimit="10" stroke-opacity="1" shape-rendering="auto" fill="black" stroke-dasharray="none" font-weight="normal" stroke-width="1" xmlns="http://www.w3.org/2000/svg" font-family="&apos;Dialog&apos;" font-style="normal" stroke-linejoin="miter" font-size="12" stroke-dashoffset="0" image-rendering="auto">
  <!--Unicode Character 'THUMBS UP SIGN' (U+1F44D)-->
  <defs id="genericDefs" />
  <g>
    <g>
      <path d="M169.875 196.3125 Q169.875 212.9062 162.9844 229.6406 L142.0312 229.6406 Q127.5469 246.2344 110.6719 253.9688 Q105.3281 254.3906 102.7969 254.3906 Q95.625 254.3906 86.4844 251.8594 L81.4219 254.3906 L75.375 254.3906 Q54.7031 254.3906 54.7031 240.4688 Q54.7031 238.7812 54.9844 237.0938 Q39.7969 235.8281 39.7969 222.3281 Q39.7969 220.6406 40.0781 218.6719 Q28.6875 215.5781 28.6875 204.75 Q28.6875 200.3906 31.7812 195.4688 Q24.1875 187.3125 24.1875 177.3281 Q24.1875 151.7344 73.4062 151.7344 Q71.5781 137.5312 65.6719 127.2656 Q56.1094 110.3906 56.1094 101.8125 Q56.1094 89.4375 63.4219 82.9688 Q69.1875 77.7656 82.2656 74.6719 L89.2969 105.8906 L115.3125 133.5938 Q124.0312 145.6875 137.5312 161.1562 Q140.4844 163.125 162.2812 163.125 Q169.875 179.2969 169.875 196.3125 ZM162.7031 197.8594 Q162.7031 184.0781 157.9219 170.7188 Q140.2031 170.7188 135.8438 168.6797 Q131.4844 166.6406 123.3281 155.5312 Q112.6406 141.3281 111.375 139.9219 L83.1094 109.8281 L77.4844 83.8125 Q63.4219 88.5938 63.4219 101.8125 Q63.4219 108.2812 71.1562 121.7812 Q80.4375 138.375 81.1406 158.625 Q31.2188 158.625 31.2188 176.4844 Q31.2188 184.9219 37.0547 190.3359 Q42.8906 195.75 51.3281 195.8906 L59.9062 196.0312 L85.3594 184.5 Q79.5938 175.7812 69.8906 175.7812 Q64.8281 175.7812 54.1406 180.2812 L47.5312 180.5625 L40.9219 173.5312 L52.3125 173.3906 Q61.875 169.3125 68.7656 169.3125 Q86.7656 169.3125 95.0625 187.5938 L90.2812 189.8438 Q99.1406 194.2031 103.9219 205.0312 L98.4375 207.4219 Q104.9062 211.5 110.3906 221.3438 L101.6719 225.4219 Q108.8438 230.625 113.2031 240.1875 L95.9062 247.9219 Q100.125 248.7656 103.0781 248.7656 Q103.0781 248.7656 108.5625 248.625 Q127.2656 237.7969 138.9375 222.3281 L158.3438 222.3281 Q162.7031 209.5312 162.7031 197.8594 ZM94.2188 201.9375 Q89.2969 195.3281 82.4062 193.5 L61.4531 202.9219 L54 202.9219 Q43.4531 202.9219 37.9688 199.9688 Q36.1406 202.5 36.1406 204.75 Q36.1406 213.4688 53.2969 213.4688 L68.2031 213.4688 L94.2188 201.9375 ZM100.125 218.3906 Q95.7656 213.1875 90.9844 210.7969 L69.4688 220.3594 L46.6875 220.2188 Q46.5469 221.0625 46.2656 222.0469 Q46.2656 230.3438 62.7188 230.3438 L73.2656 230.3438 L100.125 218.3906 ZM103.0781 237.375 Q100.5469 234.2812 94.7812 228.5156 L74.6719 237.5156 L61.7344 237.5156 L61.7344 238.3594 Q61.7344 247.7812 75.375 247.7812 L80.0156 247.7812 L103.0781 237.375 Z" stroke="none" />
    </g>
  </g>
</svg>
